<mxfile host="app.diagrams.net" modified="2023-02-16T04:30:08.340Z" agent="5.0 (Windows NT 10.0; Win64; x64) AppleWebKit/537.36 (KHTML, like Gecko) Chrome/109.0.0.0 Safari/537.36" etag="tei-N3L_OU-3AVveuOPN" version="20.8.20" type="github">
  <diagram name="Halaman-1" id="Qou2P9rM99huDepKT0rA">
    <mxGraphModel dx="1517" dy="604" grid="1" gridSize="10" guides="1" tooltips="1" connect="1" arrows="1" fold="1" page="1" pageScale="1" pageWidth="827" pageHeight="1169" math="0" shadow="0">
      <root>
        <mxCell id="0" />
        <mxCell id="1" parent="0" />
        <mxCell id="KCo2fHze2O6bLubkQ83y-54" style="edgeStyle=orthogonalEdgeStyle;rounded=0;orthogonalLoop=1;jettySize=auto;html=1;entryX=0.76;entryY=0.137;entryDx=0;entryDy=0;entryPerimeter=0;" edge="1" parent="1" source="KCo2fHze2O6bLubkQ83y-4" target="KCo2fHze2O6bLubkQ83y-20">
          <mxGeometry relative="1" as="geometry">
            <Array as="points">
              <mxPoint x="390" y="870" />
              <mxPoint x="390" y="990" />
              <mxPoint x="351" y="990" />
            </Array>
          </mxGeometry>
        </mxCell>
        <mxCell id="KCo2fHze2O6bLubkQ83y-59" style="edgeStyle=orthogonalEdgeStyle;rounded=0;orthogonalLoop=1;jettySize=auto;html=1;entryX=0.88;entryY=0.413;entryDx=0;entryDy=0;entryPerimeter=0;sourcePerimeterSpacing=2;" edge="1" parent="1" source="KCo2fHze2O6bLubkQ83y-4" target="KCo2fHze2O6bLubkQ83y-25">
          <mxGeometry relative="1" as="geometry">
            <Array as="points">
              <mxPoint x="295" y="860" />
            </Array>
          </mxGeometry>
        </mxCell>
        <mxCell id="KCo2fHze2O6bLubkQ83y-76" style="edgeStyle=orthogonalEdgeStyle;rounded=0;orthogonalLoop=1;jettySize=auto;html=1;sourcePerimeterSpacing=2;" edge="1" parent="1" source="KCo2fHze2O6bLubkQ83y-4" target="KCo2fHze2O6bLubkQ83y-66">
          <mxGeometry relative="1" as="geometry" />
        </mxCell>
        <mxCell id="KCo2fHze2O6bLubkQ83y-101" style="edgeStyle=orthogonalEdgeStyle;rounded=0;orthogonalLoop=1;jettySize=auto;html=1;entryX=0;entryY=0.5;entryDx=0;entryDy=0;sourcePerimeterSpacing=2;" edge="1" parent="1" source="KCo2fHze2O6bLubkQ83y-4" target="KCo2fHze2O6bLubkQ83y-99">
          <mxGeometry relative="1" as="geometry">
            <Array as="points">
              <mxPoint x="480" y="713" />
            </Array>
          </mxGeometry>
        </mxCell>
        <mxCell id="KCo2fHze2O6bLubkQ83y-160" style="edgeStyle=orthogonalEdgeStyle;rounded=0;orthogonalLoop=1;jettySize=auto;html=1;entryX=1;entryY=0.5;entryDx=0;entryDy=0;sourcePerimeterSpacing=2;" edge="1" parent="1" source="KCo2fHze2O6bLubkQ83y-4" target="KCo2fHze2O6bLubkQ83y-142">
          <mxGeometry relative="1" as="geometry">
            <Array as="points">
              <mxPoint x="460" y="663" />
            </Array>
          </mxGeometry>
        </mxCell>
        <mxCell id="KCo2fHze2O6bLubkQ83y-163" style="edgeStyle=orthogonalEdgeStyle;rounded=0;orthogonalLoop=1;jettySize=auto;html=1;entryX=1;entryY=1;entryDx=0;entryDy=0;sourcePerimeterSpacing=2;" edge="1" parent="1" source="KCo2fHze2O6bLubkQ83y-4" target="KCo2fHze2O6bLubkQ83y-11">
          <mxGeometry relative="1" as="geometry" />
        </mxCell>
        <mxCell id="KCo2fHze2O6bLubkQ83y-164" style="edgeStyle=orthogonalEdgeStyle;rounded=0;orthogonalLoop=1;jettySize=auto;html=1;entryX=1;entryY=0.5;entryDx=0;entryDy=0;sourcePerimeterSpacing=2;" edge="1" parent="1" source="KCo2fHze2O6bLubkQ83y-4" target="KCo2fHze2O6bLubkQ83y-19">
          <mxGeometry relative="1" as="geometry">
            <Array as="points">
              <mxPoint x="390" y="870" />
              <mxPoint x="390" y="945" />
            </Array>
          </mxGeometry>
        </mxCell>
        <mxCell id="KCo2fHze2O6bLubkQ83y-165" style="edgeStyle=orthogonalEdgeStyle;rounded=0;orthogonalLoop=1;jettySize=auto;html=1;entryX=1;entryY=0.5;entryDx=0;entryDy=0;sourcePerimeterSpacing=2;" edge="1" parent="1" source="KCo2fHze2O6bLubkQ83y-4" target="KCo2fHze2O6bLubkQ83y-22">
          <mxGeometry relative="1" as="geometry">
            <Array as="points">
              <mxPoint x="390" y="870" />
              <mxPoint x="390" y="993" />
            </Array>
          </mxGeometry>
        </mxCell>
        <mxCell id="KCo2fHze2O6bLubkQ83y-166" style="edgeStyle=orthogonalEdgeStyle;rounded=0;orthogonalLoop=1;jettySize=auto;html=1;entryX=0.5;entryY=0;entryDx=0;entryDy=0;sourcePerimeterSpacing=2;" edge="1" parent="1" source="KCo2fHze2O6bLubkQ83y-4" target="KCo2fHze2O6bLubkQ83y-23">
          <mxGeometry relative="1" as="geometry">
            <Array as="points">
              <mxPoint x="240" y="870" />
            </Array>
          </mxGeometry>
        </mxCell>
        <mxCell id="KCo2fHze2O6bLubkQ83y-167" style="edgeStyle=orthogonalEdgeStyle;rounded=0;orthogonalLoop=1;jettySize=auto;html=1;entryX=0.5;entryY=0;entryDx=0;entryDy=0;sourcePerimeterSpacing=2;" edge="1" parent="1" source="KCo2fHze2O6bLubkQ83y-4" target="KCo2fHze2O6bLubkQ83y-5">
          <mxGeometry relative="1" as="geometry" />
        </mxCell>
        <mxCell id="KCo2fHze2O6bLubkQ83y-168" style="edgeStyle=orthogonalEdgeStyle;rounded=0;orthogonalLoop=1;jettySize=auto;html=1;entryX=0.5;entryY=0;entryDx=0;entryDy=0;sourcePerimeterSpacing=2;" edge="1" parent="1" source="KCo2fHze2O6bLubkQ83y-4" target="KCo2fHze2O6bLubkQ83y-18">
          <mxGeometry relative="1" as="geometry">
            <Array as="points">
              <mxPoint x="465" y="950" />
              <mxPoint x="510" y="950" />
            </Array>
          </mxGeometry>
        </mxCell>
        <mxCell id="KCo2fHze2O6bLubkQ83y-169" style="edgeStyle=orthogonalEdgeStyle;rounded=0;orthogonalLoop=1;jettySize=auto;html=1;sourcePerimeterSpacing=2;" edge="1" parent="1" source="KCo2fHze2O6bLubkQ83y-4" target="KCo2fHze2O6bLubkQ83y-15">
          <mxGeometry relative="1" as="geometry">
            <Array as="points">
              <mxPoint x="465" y="950" />
              <mxPoint x="591" y="950" />
            </Array>
          </mxGeometry>
        </mxCell>
        <mxCell id="KCo2fHze2O6bLubkQ83y-170" style="edgeStyle=orthogonalEdgeStyle;rounded=0;orthogonalLoop=1;jettySize=auto;html=1;sourcePerimeterSpacing=2;" edge="1" parent="1" source="KCo2fHze2O6bLubkQ83y-4" target="KCo2fHze2O6bLubkQ83y-17">
          <mxGeometry relative="1" as="geometry">
            <Array as="points">
              <mxPoint x="465" y="990" />
              <mxPoint x="647" y="990" />
            </Array>
          </mxGeometry>
        </mxCell>
        <mxCell id="KCo2fHze2O6bLubkQ83y-172" style="edgeStyle=orthogonalEdgeStyle;rounded=0;orthogonalLoop=1;jettySize=auto;html=1;entryX=0;entryY=0.5;entryDx=0;entryDy=0;sourcePerimeterSpacing=2;" edge="1" parent="1" source="KCo2fHze2O6bLubkQ83y-4" target="KCo2fHze2O6bLubkQ83y-24">
          <mxGeometry relative="1" as="geometry">
            <Array as="points">
              <mxPoint x="465" y="950" />
              <mxPoint x="592" y="950" />
              <mxPoint x="592" y="993" />
            </Array>
          </mxGeometry>
        </mxCell>
        <mxCell id="KCo2fHze2O6bLubkQ83y-174" style="edgeStyle=orthogonalEdgeStyle;rounded=0;orthogonalLoop=1;jettySize=auto;html=1;entryX=0;entryY=0.5;entryDx=0;entryDy=0;sourcePerimeterSpacing=2;" edge="1" parent="1" source="KCo2fHze2O6bLubkQ83y-4" target="KCo2fHze2O6bLubkQ83y-16">
          <mxGeometry relative="1" as="geometry">
            <Array as="points">
              <mxPoint x="465" y="933" />
              <mxPoint x="585" y="933" />
            </Array>
          </mxGeometry>
        </mxCell>
        <mxCell id="KCo2fHze2O6bLubkQ83y-176" style="edgeStyle=orthogonalEdgeStyle;rounded=0;orthogonalLoop=1;jettySize=auto;html=1;entryX=0;entryY=1;entryDx=0;entryDy=0;sourcePerimeterSpacing=2;" edge="1" parent="1" source="KCo2fHze2O6bLubkQ83y-4" target="KCo2fHze2O6bLubkQ83y-14">
          <mxGeometry relative="1" as="geometry">
            <Array as="points">
              <mxPoint x="465" y="897" />
            </Array>
          </mxGeometry>
        </mxCell>
        <mxCell id="KCo2fHze2O6bLubkQ83y-4" value="Transaksi" style="rounded=0;whiteSpace=wrap;html=1;fillStyle=hatch;fillColor=none;gradientColor=default;" vertex="1" parent="1">
          <mxGeometry x="430" y="855" width="70" height="30" as="geometry" />
        </mxCell>
        <mxCell id="KCo2fHze2O6bLubkQ83y-5" value="id_outlet" style="ellipse;whiteSpace=wrap;html=1;fillStyle=hatch;fillColor=none;gradientColor=default;" vertex="1" parent="1">
          <mxGeometry x="395" y="1015" width="65" height="30" as="geometry" />
        </mxCell>
        <mxCell id="KCo2fHze2O6bLubkQ83y-11" value="id" style="ellipse;whiteSpace=wrap;html=1;fillStyle=hatch;fillColor=none;gradientColor=default;" vertex="1" parent="1">
          <mxGeometry x="249.5" y="880" width="37" height="20" as="geometry" />
        </mxCell>
        <mxCell id="KCo2fHze2O6bLubkQ83y-14" value="id_use" style="ellipse;whiteSpace=wrap;html=1;fillStyle=hatch;fillColor=none;gradientColor=default;" vertex="1" parent="1">
          <mxGeometry x="665" y="880" width="50" height="20" as="geometry" />
        </mxCell>
        <mxCell id="KCo2fHze2O6bLubkQ83y-15" value="dibayar" style="ellipse;whiteSpace=wrap;html=1;fillStyle=hatch;fillColor=none;gradientColor=default;direction=south;" vertex="1" parent="1">
          <mxGeometry x="568" y="1020" width="46" height="25" as="geometry" />
        </mxCell>
        <mxCell id="KCo2fHze2O6bLubkQ83y-16" value="pajak" style="ellipse;whiteSpace=wrap;html=1;fillStyle=hatch;fillColor=none;gradientColor=default;" vertex="1" parent="1">
          <mxGeometry x="670" y="920" width="40" height="25" as="geometry" />
        </mxCell>
        <mxCell id="KCo2fHze2O6bLubkQ83y-17" value="diskon" style="ellipse;whiteSpace=wrap;html=1;fillStyle=hatch;fillColor=none;gradientColor=default;" vertex="1" parent="1">
          <mxGeometry x="629" y="1015" width="46" height="20" as="geometry" />
        </mxCell>
        <mxCell id="KCo2fHze2O6bLubkQ83y-18" value="biaya_tambahan" style="ellipse;whiteSpace=wrap;html=1;fillStyle=hatch;fillColor=none;gradientColor=default;" vertex="1" parent="1">
          <mxGeometry x="460" y="1020" width="100" height="30" as="geometry" />
        </mxCell>
        <mxCell id="KCo2fHze2O6bLubkQ83y-19" value="batas_waktu" style="ellipse;whiteSpace=wrap;html=1;fillStyle=hatch;fillColor=none;gradientColor=default;" vertex="1" parent="1">
          <mxGeometry x="244.5" y="930" width="75" height="30" as="geometry" />
        </mxCell>
        <mxCell id="KCo2fHze2O6bLubkQ83y-20" value="tanggal" style="ellipse;whiteSpace=wrap;html=1;fillStyle=hatch;fillColor=none;gradientColor=default;" vertex="1" parent="1">
          <mxGeometry x="275" y="1015" width="60" height="20" as="geometry" />
        </mxCell>
        <mxCell id="KCo2fHze2O6bLubkQ83y-22" value="id_member" style="ellipse;whiteSpace=wrap;html=1;fillStyle=hatch;fillColor=none;gradientColor=default;" vertex="1" parent="1">
          <mxGeometry x="254.5" y="980" width="70" height="25" as="geometry" />
        </mxCell>
        <mxCell id="KCo2fHze2O6bLubkQ83y-23" value="kode_invoice" style="ellipse;whiteSpace=wrap;html=1;fillStyle=hatch;fillColor=none;gradientColor=default;" vertex="1" parent="1">
          <mxGeometry x="200" y="1030" width="80" height="25" as="geometry" />
        </mxCell>
        <mxCell id="KCo2fHze2O6bLubkQ83y-24" value="status" style="ellipse;whiteSpace=wrap;html=1;fillStyle=hatch;fillColor=none;gradientColor=default;" vertex="1" parent="1">
          <mxGeometry x="685" y="982.5" width="40" height="20" as="geometry" />
        </mxCell>
        <mxCell id="KCo2fHze2O6bLubkQ83y-60" style="edgeStyle=orthogonalEdgeStyle;rounded=0;orthogonalLoop=1;jettySize=auto;html=1;sourcePerimeterSpacing=2;" edge="1" parent="1" source="KCo2fHze2O6bLubkQ83y-25" target="KCo2fHze2O6bLubkQ83y-31">
          <mxGeometry relative="1" as="geometry" />
        </mxCell>
        <mxCell id="KCo2fHze2O6bLubkQ83y-25" value="memiliki" style="rhombus;whiteSpace=wrap;html=1;fillStyle=hatch;fillColor=none;gradientColor=default;" vertex="1" parent="1">
          <mxGeometry x="165.25" y="840" width="60" height="50" as="geometry" />
        </mxCell>
        <mxCell id="KCo2fHze2O6bLubkQ83y-26" value="telepon" style="ellipse;whiteSpace=wrap;html=1;fillStyle=hatch;fillColor=none;gradientColor=default;" vertex="1" parent="1">
          <mxGeometry x="64.75" y="780" width="60" height="20" as="geometry" />
        </mxCell>
        <mxCell id="KCo2fHze2O6bLubkQ83y-27" value="alamat" style="ellipse;whiteSpace=wrap;html=1;fillStyle=hatch;fillColor=none;gradientColor=default;" vertex="1" parent="1">
          <mxGeometry x="5" y="780" width="50" height="20" as="geometry" />
        </mxCell>
        <mxCell id="KCo2fHze2O6bLubkQ83y-28" value="nama" style="ellipse;whiteSpace=wrap;html=1;fillStyle=hatch;fillColor=none;gradientColor=default;" vertex="1" parent="1">
          <mxGeometry x="10" y="890" width="45" height="20" as="geometry" />
        </mxCell>
        <mxCell id="KCo2fHze2O6bLubkQ83y-29" value="id" style="ellipse;whiteSpace=wrap;html=1;fillStyle=hatch;fillColor=none;gradientColor=default;" vertex="1" parent="1">
          <mxGeometry x="-20" y="830" width="40" height="20" as="geometry" />
        </mxCell>
        <mxCell id="KCo2fHze2O6bLubkQ83y-30" value="jenis_kelamin" style="ellipse;whiteSpace=wrap;html=1;fillStyle=hatch;fillColor=none;gradientColor=default;" vertex="1" parent="1">
          <mxGeometry x="52.25" y="930" width="85" height="30" as="geometry" />
        </mxCell>
        <mxCell id="KCo2fHze2O6bLubkQ83y-61" style="edgeStyle=orthogonalEdgeStyle;rounded=0;orthogonalLoop=1;jettySize=auto;html=1;entryX=0.5;entryY=1;entryDx=0;entryDy=0;sourcePerimeterSpacing=2;" edge="1" parent="1" source="KCo2fHze2O6bLubkQ83y-31" target="KCo2fHze2O6bLubkQ83y-26">
          <mxGeometry relative="1" as="geometry" />
        </mxCell>
        <mxCell id="KCo2fHze2O6bLubkQ83y-62" style="edgeStyle=orthogonalEdgeStyle;rounded=0;orthogonalLoop=1;jettySize=auto;html=1;entryX=0.5;entryY=1;entryDx=0;entryDy=0;sourcePerimeterSpacing=2;" edge="1" parent="1" source="KCo2fHze2O6bLubkQ83y-31" target="KCo2fHze2O6bLubkQ83y-27">
          <mxGeometry relative="1" as="geometry" />
        </mxCell>
        <mxCell id="KCo2fHze2O6bLubkQ83y-65" style="edgeStyle=orthogonalEdgeStyle;rounded=0;orthogonalLoop=1;jettySize=auto;html=1;sourcePerimeterSpacing=2;" edge="1" parent="1" source="KCo2fHze2O6bLubkQ83y-31" target="KCo2fHze2O6bLubkQ83y-30">
          <mxGeometry relative="1" as="geometry" />
        </mxCell>
        <mxCell id="KCo2fHze2O6bLubkQ83y-157" style="edgeStyle=orthogonalEdgeStyle;rounded=0;orthogonalLoop=1;jettySize=auto;html=1;entryX=0.5;entryY=1;entryDx=0;entryDy=0;sourcePerimeterSpacing=2;" edge="1" parent="1" source="KCo2fHze2O6bLubkQ83y-31" target="KCo2fHze2O6bLubkQ83y-29">
          <mxGeometry relative="1" as="geometry">
            <Array as="points">
              <mxPoint y="865" />
            </Array>
          </mxGeometry>
        </mxCell>
        <mxCell id="KCo2fHze2O6bLubkQ83y-158" style="edgeStyle=orthogonalEdgeStyle;rounded=0;orthogonalLoop=1;jettySize=auto;html=1;entryX=0.5;entryY=0;entryDx=0;entryDy=0;sourcePerimeterSpacing=2;" edge="1" parent="1" source="KCo2fHze2O6bLubkQ83y-31" target="KCo2fHze2O6bLubkQ83y-28">
          <mxGeometry relative="1" as="geometry" />
        </mxCell>
        <mxCell id="KCo2fHze2O6bLubkQ83y-31" value="member" style="rounded=0;whiteSpace=wrap;html=1;fillStyle=hatch;fillColor=none;gradientColor=default;" vertex="1" parent="1">
          <mxGeometry x="64.75" y="850" width="60" height="30" as="geometry" />
        </mxCell>
        <mxCell id="KCo2fHze2O6bLubkQ83y-88" style="edgeStyle=orthogonalEdgeStyle;rounded=0;orthogonalLoop=1;jettySize=auto;html=1;entryX=0;entryY=0.5;entryDx=0;entryDy=0;sourcePerimeterSpacing=2;" edge="1" parent="1" source="KCo2fHze2O6bLubkQ83y-66" target="KCo2fHze2O6bLubkQ83y-77">
          <mxGeometry relative="1" as="geometry">
            <Array as="points">
              <mxPoint x="786" y="790" />
            </Array>
          </mxGeometry>
        </mxCell>
        <mxCell id="KCo2fHze2O6bLubkQ83y-66" value="memiliki" style="rhombus;whiteSpace=wrap;html=1;fillStyle=hatch;fillColor=none;gradientColor=default;" vertex="1" parent="1">
          <mxGeometry x="760" y="845" width="53" height="50" as="geometry" />
        </mxCell>
        <mxCell id="KCo2fHze2O6bLubkQ83y-90" style="edgeStyle=orthogonalEdgeStyle;rounded=0;orthogonalLoop=1;jettySize=auto;html=1;entryX=0.5;entryY=1;entryDx=0;entryDy=0;sourcePerimeterSpacing=2;" edge="1" parent="1" source="KCo2fHze2O6bLubkQ83y-77" target="KCo2fHze2O6bLubkQ83y-80">
          <mxGeometry relative="1" as="geometry" />
        </mxCell>
        <mxCell id="KCo2fHze2O6bLubkQ83y-91" style="edgeStyle=orthogonalEdgeStyle;rounded=0;orthogonalLoop=1;jettySize=auto;html=1;sourcePerimeterSpacing=2;" edge="1" parent="1" source="KCo2fHze2O6bLubkQ83y-77" target="KCo2fHze2O6bLubkQ83y-81">
          <mxGeometry relative="1" as="geometry">
            <Array as="points">
              <mxPoint x="960" y="790" />
              <mxPoint x="960" y="790" />
            </Array>
          </mxGeometry>
        </mxCell>
        <mxCell id="KCo2fHze2O6bLubkQ83y-92" style="edgeStyle=orthogonalEdgeStyle;rounded=0;orthogonalLoop=1;jettySize=auto;html=1;entryX=0.5;entryY=0;entryDx=0;entryDy=0;sourcePerimeterSpacing=2;" edge="1" parent="1" source="KCo2fHze2O6bLubkQ83y-77" target="KCo2fHze2O6bLubkQ83y-82">
          <mxGeometry relative="1" as="geometry" />
        </mxCell>
        <mxCell id="KCo2fHze2O6bLubkQ83y-94" style="edgeStyle=orthogonalEdgeStyle;rounded=0;orthogonalLoop=1;jettySize=auto;html=1;sourcePerimeterSpacing=2;" edge="1" parent="1" source="KCo2fHze2O6bLubkQ83y-77" target="KCo2fHze2O6bLubkQ83y-84">
          <mxGeometry relative="1" as="geometry" />
        </mxCell>
        <mxCell id="KCo2fHze2O6bLubkQ83y-95" style="edgeStyle=orthogonalEdgeStyle;rounded=0;orthogonalLoop=1;jettySize=auto;html=1;entryX=0;entryY=0.5;entryDx=0;entryDy=0;sourcePerimeterSpacing=2;" edge="1" parent="1" source="KCo2fHze2O6bLubkQ83y-77" target="KCo2fHze2O6bLubkQ83y-83">
          <mxGeometry relative="1" as="geometry">
            <Array as="points">
              <mxPoint x="890" y="871" />
            </Array>
          </mxGeometry>
        </mxCell>
        <mxCell id="KCo2fHze2O6bLubkQ83y-97" style="edgeStyle=orthogonalEdgeStyle;rounded=0;orthogonalLoop=1;jettySize=auto;html=1;entryX=1;entryY=0.5;entryDx=0;entryDy=0;sourcePerimeterSpacing=2;" edge="1" parent="1" source="KCo2fHze2O6bLubkQ83y-77" target="KCo2fHze2O6bLubkQ83y-78">
          <mxGeometry relative="1" as="geometry">
            <Array as="points">
              <mxPoint x="890" y="740" />
            </Array>
          </mxGeometry>
        </mxCell>
        <mxCell id="KCo2fHze2O6bLubkQ83y-98" style="edgeStyle=orthogonalEdgeStyle;rounded=0;orthogonalLoop=1;jettySize=auto;html=1;entryX=1;entryY=0.5;entryDx=0;entryDy=0;sourcePerimeterSpacing=2;" edge="1" parent="1" source="KCo2fHze2O6bLubkQ83y-77" target="KCo2fHze2O6bLubkQ83y-85">
          <mxGeometry relative="1" as="geometry">
            <Array as="points">
              <mxPoint x="930" y="790" />
              <mxPoint x="930" y="760" />
            </Array>
          </mxGeometry>
        </mxCell>
        <mxCell id="KCo2fHze2O6bLubkQ83y-77" value="User" style="rounded=0;whiteSpace=wrap;html=1;fillStyle=hatch;fillColor=none;gradientColor=default;" vertex="1" parent="1">
          <mxGeometry x="870" y="780" width="40" height="20" as="geometry" />
        </mxCell>
        <mxCell id="KCo2fHze2O6bLubkQ83y-103" style="edgeStyle=orthogonalEdgeStyle;rounded=0;orthogonalLoop=1;jettySize=auto;html=1;entryX=1;entryY=0.5;entryDx=0;entryDy=0;sourcePerimeterSpacing=2;" edge="1" parent="1" source="KCo2fHze2O6bLubkQ83y-78" target="KCo2fHze2O6bLubkQ83y-102">
          <mxGeometry relative="1" as="geometry">
            <Array as="points">
              <mxPoint x="820" y="660" />
            </Array>
          </mxGeometry>
        </mxCell>
        <mxCell id="KCo2fHze2O6bLubkQ83y-78" value="memiliki" style="rhombus;whiteSpace=wrap;html=1;fillStyle=hatch;fillColor=none;gradientColor=default;" vertex="1" parent="1">
          <mxGeometry x="790" y="715" width="60" height="50" as="geometry" />
        </mxCell>
        <mxCell id="KCo2fHze2O6bLubkQ83y-80" value="id" style="ellipse;whiteSpace=wrap;html=1;fillStyle=hatch;fillColor=none;gradientColor=default;" vertex="1" parent="1">
          <mxGeometry x="960" y="737.5" width="40" height="25" as="geometry" />
        </mxCell>
        <mxCell id="KCo2fHze2O6bLubkQ83y-81" value="nama" style="ellipse;whiteSpace=wrap;html=1;fillStyle=hatch;fillColor=none;gradientColor=default;" vertex="1" parent="1">
          <mxGeometry x="1000" y="777.5" width="40" height="25" as="geometry" />
        </mxCell>
        <mxCell id="KCo2fHze2O6bLubkQ83y-82" value="username" style="ellipse;whiteSpace=wrap;html=1;fillStyle=hatch;fillColor=none;gradientColor=default;" vertex="1" parent="1">
          <mxGeometry x="930" y="815" width="60" height="30" as="geometry" />
        </mxCell>
        <mxCell id="KCo2fHze2O6bLubkQ83y-83" value="password" style="ellipse;whiteSpace=wrap;html=1;fillStyle=hatch;fillColor=none;gradientColor=default;" vertex="1" parent="1">
          <mxGeometry x="930" y="855" width="60" height="32.5" as="geometry" />
        </mxCell>
        <mxCell id="KCo2fHze2O6bLubkQ83y-84" value="id_outlet" style="ellipse;whiteSpace=wrap;html=1;fillStyle=hatch;fillColor=none;gradientColor=default;" vertex="1" parent="1">
          <mxGeometry x="860" y="890" width="60" height="30" as="geometry" />
        </mxCell>
        <mxCell id="KCo2fHze2O6bLubkQ83y-85" value="role" style="ellipse;whiteSpace=wrap;html=1;fillStyle=hatch;fillColor=none;gradientColor=default;direction=south;" vertex="1" parent="1">
          <mxGeometry x="910" y="737.5" width="40" height="20" as="geometry" />
        </mxCell>
        <mxCell id="KCo2fHze2O6bLubkQ83y-104" style="edgeStyle=orthogonalEdgeStyle;rounded=0;orthogonalLoop=1;jettySize=auto;html=1;entryX=0;entryY=0.5;entryDx=0;entryDy=0;sourcePerimeterSpacing=2;" edge="1" parent="1" source="KCo2fHze2O6bLubkQ83y-99" target="KCo2fHze2O6bLubkQ83y-102">
          <mxGeometry relative="1" as="geometry">
            <Array as="points">
              <mxPoint x="730" y="660" />
            </Array>
          </mxGeometry>
        </mxCell>
        <mxCell id="KCo2fHze2O6bLubkQ83y-99" value="memiliki" style="rhombus;whiteSpace=wrap;html=1;fillStyle=hatch;fillColor=none;gradientColor=default;" vertex="1" parent="1">
          <mxGeometry x="700" y="687.5" width="60" height="50" as="geometry" />
        </mxCell>
        <mxCell id="KCo2fHze2O6bLubkQ83y-110" style="edgeStyle=orthogonalEdgeStyle;rounded=0;orthogonalLoop=1;jettySize=auto;html=1;entryX=1;entryY=0.5;entryDx=0;entryDy=0;sourcePerimeterSpacing=2;" edge="1" parent="1" source="KCo2fHze2O6bLubkQ83y-102" target="KCo2fHze2O6bLubkQ83y-108">
          <mxGeometry relative="1" as="geometry" />
        </mxCell>
        <mxCell id="KCo2fHze2O6bLubkQ83y-111" style="edgeStyle=orthogonalEdgeStyle;rounded=0;orthogonalLoop=1;jettySize=auto;html=1;sourcePerimeterSpacing=2;entryX=1;entryY=0.5;entryDx=0;entryDy=0;" edge="1" parent="1" source="KCo2fHze2O6bLubkQ83y-102" target="KCo2fHze2O6bLubkQ83y-105">
          <mxGeometry relative="1" as="geometry">
            <mxPoint x="828" y="600" as="targetPoint" />
            <Array as="points">
              <mxPoint x="780" y="620" />
              <mxPoint x="820" y="620" />
            </Array>
          </mxGeometry>
        </mxCell>
        <mxCell id="KCo2fHze2O6bLubkQ83y-113" style="edgeStyle=orthogonalEdgeStyle;rounded=0;orthogonalLoop=1;jettySize=auto;html=1;sourcePerimeterSpacing=2;entryX=0;entryY=0.5;entryDx=0;entryDy=0;" edge="1" parent="1" source="KCo2fHze2O6bLubkQ83y-102" target="KCo2fHze2O6bLubkQ83y-107">
          <mxGeometry relative="1" as="geometry">
            <mxPoint x="900" y="630" as="targetPoint" />
            <Array as="points">
              <mxPoint x="780" y="620" />
              <mxPoint x="900" y="620" />
              <mxPoint x="900" y="650" />
            </Array>
          </mxGeometry>
        </mxCell>
        <mxCell id="KCo2fHze2O6bLubkQ83y-115" style="edgeStyle=orthogonalEdgeStyle;rounded=0;orthogonalLoop=1;jettySize=auto;html=1;sourcePerimeterSpacing=2;" edge="1" parent="1" source="KCo2fHze2O6bLubkQ83y-102" target="KCo2fHze2O6bLubkQ83y-114">
          <mxGeometry relative="1" as="geometry">
            <Array as="points">
              <mxPoint x="695" y="650" />
            </Array>
          </mxGeometry>
        </mxCell>
        <mxCell id="KCo2fHze2O6bLubkQ83y-125" style="edgeStyle=orthogonalEdgeStyle;rounded=0;orthogonalLoop=1;jettySize=auto;html=1;entryX=1;entryY=0.5;entryDx=0;entryDy=0;sourcePerimeterSpacing=2;" edge="1" parent="1" source="KCo2fHze2O6bLubkQ83y-102" target="KCo2fHze2O6bLubkQ83y-106">
          <mxGeometry relative="1" as="geometry">
            <Array as="points">
              <mxPoint x="780" y="620" />
              <mxPoint x="885" y="620" />
            </Array>
          </mxGeometry>
        </mxCell>
        <mxCell id="KCo2fHze2O6bLubkQ83y-102" value="Outlet" style="rounded=0;whiteSpace=wrap;html=1;fillStyle=hatch;fillColor=none;gradientColor=default;" vertex="1" parent="1">
          <mxGeometry x="760" y="650" width="40" height="20" as="geometry" />
        </mxCell>
        <mxCell id="KCo2fHze2O6bLubkQ83y-105" value="id" style="ellipse;whiteSpace=wrap;html=1;fillStyle=hatch;fillColor=none;gradientColor=default;direction=south;" vertex="1" parent="1">
          <mxGeometry x="805" y="569" width="30" height="15" as="geometry" />
        </mxCell>
        <mxCell id="KCo2fHze2O6bLubkQ83y-106" value="alamat" style="ellipse;whiteSpace=wrap;html=1;fillStyle=hatch;fillColor=none;gradientColor=default;direction=south;" vertex="1" parent="1">
          <mxGeometry x="860" y="575" width="50" height="20" as="geometry" />
        </mxCell>
        <mxCell id="KCo2fHze2O6bLubkQ83y-107" value="nama" style="ellipse;whiteSpace=wrap;html=1;fillStyle=hatch;fillColor=none;gradientColor=default;direction=west;" vertex="1" parent="1">
          <mxGeometry x="890" y="630" width="20" height="40" as="geometry" />
        </mxCell>
        <mxCell id="KCo2fHze2O6bLubkQ83y-108" value="telepon" style="ellipse;whiteSpace=wrap;html=1;fillStyle=hatch;fillColor=none;gradientColor=default;direction=south;" vertex="1" parent="1">
          <mxGeometry x="755" y="545" width="50" height="20" as="geometry" />
        </mxCell>
        <mxCell id="KCo2fHze2O6bLubkQ83y-132" style="edgeStyle=orthogonalEdgeStyle;rounded=0;orthogonalLoop=1;jettySize=auto;html=1;entryX=0.75;entryY=1;entryDx=0;entryDy=0;sourcePerimeterSpacing=2;" edge="1" parent="1" source="KCo2fHze2O6bLubkQ83y-114" target="KCo2fHze2O6bLubkQ83y-116">
          <mxGeometry relative="1" as="geometry">
            <Array as="points">
              <mxPoint x="580" y="485" />
            </Array>
          </mxGeometry>
        </mxCell>
        <mxCell id="KCo2fHze2O6bLubkQ83y-114" value="memiliki" style="rhombus;whiteSpace=wrap;html=1;fillStyle=hatch;fillColor=none;gradientColor=default;" vertex="1" parent="1">
          <mxGeometry x="615" y="460" width="60" height="50" as="geometry" />
        </mxCell>
        <mxCell id="KCo2fHze2O6bLubkQ83y-127" style="edgeStyle=orthogonalEdgeStyle;rounded=0;orthogonalLoop=1;jettySize=auto;html=1;entryX=1;entryY=0.5;entryDx=0;entryDy=0;sourcePerimeterSpacing=2;" edge="1" parent="1" source="KCo2fHze2O6bLubkQ83y-116" target="KCo2fHze2O6bLubkQ83y-120">
          <mxGeometry relative="1" as="geometry" />
        </mxCell>
        <mxCell id="KCo2fHze2O6bLubkQ83y-128" style="edgeStyle=orthogonalEdgeStyle;rounded=0;orthogonalLoop=1;jettySize=auto;html=1;entryX=1;entryY=0.5;entryDx=0;entryDy=0;sourcePerimeterSpacing=2;" edge="1" parent="1" source="KCo2fHze2O6bLubkQ83y-116" target="KCo2fHze2O6bLubkQ83y-118">
          <mxGeometry relative="1" as="geometry" />
        </mxCell>
        <mxCell id="KCo2fHze2O6bLubkQ83y-129" style="edgeStyle=orthogonalEdgeStyle;rounded=0;orthogonalLoop=1;jettySize=auto;html=1;entryX=1;entryY=0.5;entryDx=0;entryDy=0;sourcePerimeterSpacing=2;" edge="1" parent="1" source="KCo2fHze2O6bLubkQ83y-116" target="KCo2fHze2O6bLubkQ83y-119">
          <mxGeometry relative="1" as="geometry" />
        </mxCell>
        <mxCell id="KCo2fHze2O6bLubkQ83y-130" style="edgeStyle=orthogonalEdgeStyle;rounded=0;orthogonalLoop=1;jettySize=auto;html=1;entryX=1.164;entryY=0.366;entryDx=0;entryDy=0;entryPerimeter=0;sourcePerimeterSpacing=2;" edge="1" parent="1" source="KCo2fHze2O6bLubkQ83y-116" target="KCo2fHze2O6bLubkQ83y-117">
          <mxGeometry relative="1" as="geometry" />
        </mxCell>
        <mxCell id="KCo2fHze2O6bLubkQ83y-131" style="edgeStyle=orthogonalEdgeStyle;rounded=0;orthogonalLoop=1;jettySize=auto;html=1;entryX=-0.081;entryY=0.559;entryDx=0;entryDy=0;entryPerimeter=0;sourcePerimeterSpacing=2;" edge="1" parent="1" source="KCo2fHze2O6bLubkQ83y-116" target="KCo2fHze2O6bLubkQ83y-121">
          <mxGeometry relative="1" as="geometry">
            <Array as="points">
              <mxPoint x="570" y="488" />
            </Array>
          </mxGeometry>
        </mxCell>
        <mxCell id="KCo2fHze2O6bLubkQ83y-134" style="edgeStyle=orthogonalEdgeStyle;rounded=0;orthogonalLoop=1;jettySize=auto;html=1;sourcePerimeterSpacing=2;entryX=0.5;entryY=0;entryDx=0;entryDy=0;" edge="1" parent="1" source="KCo2fHze2O6bLubkQ83y-116" target="KCo2fHze2O6bLubkQ83y-133">
          <mxGeometry relative="1" as="geometry">
            <mxPoint x="414" y="490" as="targetPoint" />
            <Array as="points">
              <mxPoint x="430" y="450" />
            </Array>
          </mxGeometry>
        </mxCell>
        <mxCell id="KCo2fHze2O6bLubkQ83y-116" value="Paket" style="rounded=0;whiteSpace=wrap;html=1;fillStyle=hatch;fillColor=none;gradientColor=default;" vertex="1" parent="1">
          <mxGeometry x="550" y="440" width="40" height="20" as="geometry" />
        </mxCell>
        <mxCell id="KCo2fHze2O6bLubkQ83y-117" value="harga" style="ellipse;whiteSpace=wrap;html=1;fillStyle=hatch;fillColor=none;gradientColor=default;direction=south;" vertex="1" parent="1">
          <mxGeometry x="485" y="380" width="50" height="20" as="geometry" />
        </mxCell>
        <mxCell id="KCo2fHze2O6bLubkQ83y-118" value="id_outlet" style="ellipse;whiteSpace=wrap;html=1;fillStyle=hatch;fillColor=none;gradientColor=default;direction=south;" vertex="1" parent="1">
          <mxGeometry x="590" y="350" width="50" height="20" as="geometry" />
        </mxCell>
        <mxCell id="KCo2fHze2O6bLubkQ83y-119" value="jenis" style="ellipse;whiteSpace=wrap;html=1;fillStyle=hatch;fillColor=none;gradientColor=default;direction=south;" vertex="1" parent="1">
          <mxGeometry x="620" y="390" width="50" height="20" as="geometry" />
        </mxCell>
        <mxCell id="KCo2fHze2O6bLubkQ83y-120" value="id" style="ellipse;whiteSpace=wrap;html=1;fillStyle=hatch;fillColor=none;gradientColor=default;direction=south;" vertex="1" parent="1">
          <mxGeometry x="538" y="350" width="30" height="20" as="geometry" />
        </mxCell>
        <mxCell id="KCo2fHze2O6bLubkQ83y-121" value="nama_paket" style="ellipse;whiteSpace=wrap;html=1;fillStyle=hatch;fillColor=none;gradientColor=default;direction=south;" vertex="1" parent="1">
          <mxGeometry x="538" y="495" width="75" height="30" as="geometry" />
        </mxCell>
        <mxCell id="KCo2fHze2O6bLubkQ83y-136" style="edgeStyle=orthogonalEdgeStyle;rounded=0;orthogonalLoop=1;jettySize=auto;html=1;entryX=1;entryY=0.5;entryDx=0;entryDy=0;sourcePerimeterSpacing=2;" edge="1" parent="1" source="KCo2fHze2O6bLubkQ83y-133" target="KCo2fHze2O6bLubkQ83y-135">
          <mxGeometry relative="1" as="geometry" />
        </mxCell>
        <mxCell id="KCo2fHze2O6bLubkQ83y-133" value="memiliki" style="rhombus;whiteSpace=wrap;html=1;fillStyle=hatch;fillColor=none;gradientColor=default;" vertex="1" parent="1">
          <mxGeometry x="400" y="525" width="60" height="50" as="geometry" />
        </mxCell>
        <mxCell id="KCo2fHze2O6bLubkQ83y-147" style="edgeStyle=orthogonalEdgeStyle;rounded=0;orthogonalLoop=1;jettySize=auto;html=1;entryX=1;entryY=0.5;entryDx=0;entryDy=0;sourcePerimeterSpacing=2;" edge="1" parent="1" source="KCo2fHze2O6bLubkQ83y-135" target="KCo2fHze2O6bLubkQ83y-140">
          <mxGeometry relative="1" as="geometry" />
        </mxCell>
        <mxCell id="KCo2fHze2O6bLubkQ83y-148" style="edgeStyle=orthogonalEdgeStyle;rounded=0;orthogonalLoop=1;jettySize=auto;html=1;entryX=1;entryY=0.5;entryDx=0;entryDy=0;sourcePerimeterSpacing=2;" edge="1" parent="1" source="KCo2fHze2O6bLubkQ83y-135" target="KCo2fHze2O6bLubkQ83y-139">
          <mxGeometry relative="1" as="geometry" />
        </mxCell>
        <mxCell id="KCo2fHze2O6bLubkQ83y-149" style="edgeStyle=orthogonalEdgeStyle;rounded=0;orthogonalLoop=1;jettySize=auto;html=1;entryX=1;entryY=0.5;entryDx=0;entryDy=0;sourcePerimeterSpacing=2;" edge="1" parent="1" source="KCo2fHze2O6bLubkQ83y-135" target="KCo2fHze2O6bLubkQ83y-141">
          <mxGeometry relative="1" as="geometry" />
        </mxCell>
        <mxCell id="KCo2fHze2O6bLubkQ83y-150" style="edgeStyle=orthogonalEdgeStyle;rounded=0;orthogonalLoop=1;jettySize=auto;html=1;entryX=0;entryY=0.5;entryDx=0;entryDy=0;sourcePerimeterSpacing=2;" edge="1" parent="1" source="KCo2fHze2O6bLubkQ83y-135" target="KCo2fHze2O6bLubkQ83y-137">
          <mxGeometry relative="1" as="geometry" />
        </mxCell>
        <mxCell id="KCo2fHze2O6bLubkQ83y-162" style="edgeStyle=orthogonalEdgeStyle;rounded=0;orthogonalLoop=1;jettySize=auto;html=1;entryX=0.5;entryY=1;entryDx=0;entryDy=0;sourcePerimeterSpacing=2;" edge="1" parent="1" source="KCo2fHze2O6bLubkQ83y-135" target="KCo2fHze2O6bLubkQ83y-138">
          <mxGeometry relative="1" as="geometry">
            <Array as="points">
              <mxPoint x="250" y="623" />
              <mxPoint x="293" y="623" />
            </Array>
          </mxGeometry>
        </mxCell>
        <mxCell id="KCo2fHze2O6bLubkQ83y-135" value="Detail Transaksi" style="rounded=0;whiteSpace=wrap;html=1;fillStyle=hatch;fillColor=none;gradientColor=default;" vertex="1" parent="1">
          <mxGeometry x="170" y="575" width="95.5" height="20" as="geometry" />
        </mxCell>
        <mxCell id="KCo2fHze2O6bLubkQ83y-137" value="keterangan" style="ellipse;whiteSpace=wrap;html=1;fillStyle=hatch;fillColor=none;gradientColor=default;direction=south;" vertex="1" parent="1">
          <mxGeometry x="85" y="607.5" width="75" height="30" as="geometry" />
        </mxCell>
        <mxCell id="KCo2fHze2O6bLubkQ83y-138" value="id_paket" style="ellipse;whiteSpace=wrap;html=1;fillStyle=hatch;fillColor=none;gradientColor=default;direction=south;" vertex="1" parent="1">
          <mxGeometry x="320" y="607.5" width="75" height="30" as="geometry" />
        </mxCell>
        <mxCell id="KCo2fHze2O6bLubkQ83y-139" value="id_transaksi" style="ellipse;whiteSpace=wrap;html=1;fillStyle=hatch;fillColor=none;gradientColor=default;direction=south;" vertex="1" parent="1">
          <mxGeometry x="249.5" y="450" width="75" height="30" as="geometry" />
        </mxCell>
        <mxCell id="KCo2fHze2O6bLubkQ83y-140" value="id" style="ellipse;whiteSpace=wrap;html=1;fillStyle=hatch;fillColor=none;gradientColor=default;direction=south;" vertex="1" parent="1">
          <mxGeometry x="200.25" y="475" width="35" height="20" as="geometry" />
        </mxCell>
        <mxCell id="KCo2fHze2O6bLubkQ83y-141" value="qtx" style="ellipse;whiteSpace=wrap;html=1;fillStyle=hatch;fillColor=none;gradientColor=default;direction=south;" vertex="1" parent="1">
          <mxGeometry x="107.75" y="530" width="29.5" height="20" as="geometry" />
        </mxCell>
        <mxCell id="KCo2fHze2O6bLubkQ83y-144" style="edgeStyle=orthogonalEdgeStyle;rounded=0;orthogonalLoop=1;jettySize=auto;html=1;entryX=0.5;entryY=1;entryDx=0;entryDy=0;sourcePerimeterSpacing=2;" edge="1" parent="1" source="KCo2fHze2O6bLubkQ83y-142" target="KCo2fHze2O6bLubkQ83y-135">
          <mxGeometry relative="1" as="geometry" />
        </mxCell>
        <mxCell id="KCo2fHze2O6bLubkQ83y-142" value="memiliki" style="rhombus;whiteSpace=wrap;html=1;fillStyle=hatch;fillColor=none;gradientColor=default;" vertex="1" parent="1">
          <mxGeometry x="335" y="637.5" width="60" height="50" as="geometry" />
        </mxCell>
      </root>
    </mxGraphModel>
  </diagram>
</mxfile>
